<svg width="155" height="155" viewBox="0 0 155 155" fill="none" xmlns="http://www.w3.org/2000/svg">
<circle cx="77.5" cy="77.5" r="77.5" fill="#B09F74"/>
<circle cx="77.5001" cy="77.5" r="70.2018" stroke="white" stroke-dasharray="3 3"/>
<path d="M78.6736 43.4468L84.0579 53.4956L89.2272 50.7647L85.4315 60.1675L78.8355 60.2784L72.2136 60.2928L68.2731 50.9959L73.5067 53.5276L78.6736 43.4468Z" stroke="white" stroke-width="1.4173" stroke-miterlimit="10" stroke-linecap="round" stroke-linejoin="round"/>
<path d="M76.9205 53.1306L78.752 49.534L80.6308 53.0682" stroke="white" stroke-width="1.4173" stroke-miterlimit="10" stroke-linecap="round" stroke-linejoin="round"/>
<path d="M90.2777 51.2079C91.2913 50.9363 91.8929 49.8944 91.6213 48.8809C91.3497 47.8673 90.3078 47.2658 89.2942 47.5374C88.2807 47.8089 87.6792 48.8508 87.9507 49.8644C88.2223 50.878 89.2642 51.4795 90.2777 51.2079Z" stroke="white" stroke-width="1.4173" stroke-miterlimit="10" stroke-linecap="round" stroke-linejoin="round"/>
<path d="M68.061 51.3633C69.0745 51.0917 69.6761 50.0498 69.4045 49.0363C69.1329 48.0227 68.091 47.4212 67.0774 47.6928C66.0639 47.9643 65.4624 49.0062 65.7339 50.0198C66.0055 51.0334 67.0474 51.6349 68.061 51.3633Z" stroke="white" stroke-width="1.4173" stroke-miterlimit="10" stroke-linecap="round" stroke-linejoin="round"/>
<path d="M79.1825 43.414C80.1961 43.1424 80.7976 42.1006 80.526 41.087C80.2544 40.0734 79.2126 39.4719 78.199 39.7435C77.1854 40.0151 76.5839 41.0569 76.8555 42.0705C77.1271 43.0841 78.1689 43.6856 79.1825 43.414Z" stroke="white" stroke-width="1.4173" stroke-miterlimit="10" stroke-linecap="round" stroke-linejoin="round"/>
<path d="M72.6675 62.7593L84.9643 62.6738" stroke="white" stroke-width="1.4173" stroke-miterlimit="10" stroke-linecap="round" stroke-linejoin="round"/>
</svg>
