<svg width="155" height="155" viewBox="0 0 155 155" fill="none" xmlns="http://www.w3.org/2000/svg">
<circle cx="77.5" cy="77.5" r="77.5" fill="black"/>
<circle cx="77.5001" cy="77.5001" r="70.2018" stroke="white" stroke-dasharray="3 3"/>
<path d="M78.6739 43.4469L84.0582 53.4958L89.2275 50.7648L85.4318 60.1676L78.8357 60.2785L72.2138 60.2929L68.2733 50.996L73.5069 53.5277L78.6739 43.4469Z" stroke="white" stroke-width="1.4173" stroke-miterlimit="10" stroke-linecap="round" stroke-linejoin="round"/>
<path d="M76.9205 53.1307L78.752 49.5341L80.6308 53.0683" stroke="white" stroke-width="1.4173" stroke-miterlimit="10" stroke-linecap="round" stroke-linejoin="round"/>
<path d="M90.278 51.2081C91.2916 50.9365 91.8931 49.8946 91.6215 48.881C91.3499 47.8675 90.3081 47.266 89.2945 47.5375C88.2809 47.8091 87.6794 48.851 87.951 49.8646C88.2226 50.8781 89.2644 51.4796 90.278 51.2081Z" stroke="white" stroke-width="1.4173" stroke-miterlimit="10" stroke-linecap="round" stroke-linejoin="round"/>
<path d="M68.0612 51.3633C69.0748 51.0917 69.6763 50.0499 69.4047 49.0363C69.1331 48.0227 68.0913 47.4212 67.0777 47.6928C66.0641 47.9644 65.4626 49.0062 65.7342 50.0198C66.0058 51.0334 67.0476 51.6349 68.0612 51.3633Z" stroke="white" stroke-width="1.4173" stroke-miterlimit="10" stroke-linecap="round" stroke-linejoin="round"/>
<path d="M79.1825 43.4141C80.1961 43.1425 80.7976 42.1007 80.526 41.0871C80.2544 40.0735 79.2126 39.472 78.199 39.7436C77.1854 40.0152 76.5839 41.057 76.8555 42.0706C77.1271 43.0842 78.1689 43.6857 79.1825 43.4141Z" stroke="white" stroke-width="1.4173" stroke-miterlimit="10" stroke-linecap="round" stroke-linejoin="round"/>
<path d="M72.6675 62.7598L84.9643 62.6742" stroke="white" stroke-width="1.4173" stroke-miterlimit="10" stroke-linecap="round" stroke-linejoin="round"/>
</svg>
